<?xml version="1.0" encoding="UTF-8"?>
<svg xmlns="http://www.w3.org/2000/svg" width="32" height="32" viewBox="0 0 32 32" fill="none">
  <path d="M16 2C8.268 2 2 8.268 2 16C2 23.732 8.268 30 16 30C23.732 30 30 23.732 30 16C30 8.268 23.732 2 16 2Z" fill="#16A34A"/>
  <path d="M22 12C22 14.2091 20.2091 16 18 16C15.7909 16 14 14.2091 14 12C14 9.79086 15.7909 8 18 8C20.2091 8 22 9.79086 22 12Z" fill="white"/>
  <path d="M18 24C18 21.7909 16.2091 20 14 20C11.7909 20 10 21.7909 10 24C10 26.2091 11.7909 28 14 28C16.2091 28 18 26.2091 18 24Z" fill="white"/>
</svg>
